<!DOCTYPE svg PUBLIC "-//W3C//DTD SVG 1.1//EN" "http://www.w3.org/Graphics/SVG/1.1/DTD/svg11.dtd">
<!-- Uploaded to: SVG Repo, www.svgrepo.com, Transformed by: SVG Repo Mixer Tools -->
<svg fill="#000000" version="1.1" id="Capa_1" xmlns="http://www.w3.org/2000/svg" xmlns:xlink="http://www.w3.org/1999/xlink" width="800px" height="800px" viewBox="-97.88 -97.88 685.15 685.15" xml:space="preserve" transform="matrix(1, 0, 0, -1, 0, 0)rotate(0)" stroke="#000000" stroke-width="0.00489394">
<g id="SVGRepo_bgCarrier" stroke-width="0"/>
<g id="SVGRepo_tracerCarrier" stroke-linecap="round" stroke-linejoin="round" stroke="#CCCCCC" stroke-width="14.681819999999998"/>
<g id="SVGRepo_iconCarrier"> <g> <path d="M375.789,92.867H166.864l17.507-42.795c3.724-9.132,1-19.574-6.691-25.744c-7.701-6.166-18.538-6.508-26.639-0.879 L9.574,121.71c-6.197,4.304-9.795,11.457-9.563,18.995c0.231,7.533,4.261,14.446,10.71,18.359l147.925,89.823 c8.417,5.108,19.18,4.093,26.481-2.499c7.312-6.591,9.427-17.312,5.219-26.202l-19.443-41.132h204.886 c15.119,0,27.418,12.536,27.418,27.654v149.852c0,15.118-12.299,27.19-27.418,27.19h-226.74c-20.226,0-36.623,16.396-36.623,36.622 v12.942c0,20.228,16.397,36.624,36.623,36.624h226.74c62.642,0,113.604-50.732,113.604-113.379V206.709 C489.395,144.062,438.431,92.867,375.789,92.867z"/> </g> </g>
</svg>